<svg xmlns="http://www.w3.org/2000/svg" viewBox="0 0 512 512">
  <rect width="512" height="512" rx="112" fill="#2563eb"/>
  <circle cx="256" cy="256" r="168" fill="#ffffff" opacity="0.14"/>
  <path fill="#ffffff" d="M260 96c-39.8 0-72 32.2-72 72v88c0 39.8 32.2 72 72 72s72-32.2 72-72v-88c0-39.8-32.2-72-72-72Zm116 144c-13.3 0-24 10.7-24 24 0 50.8-41.2 92-92 92s-92-41.2-92-92c0-13.3-10.7-24-24-24s-24 10.7-24 24c0 68.9 50.2 126.1 116 137.1V440c0 13.3 10.7 24 24 24s24-10.7 24-24v-38.9c65.8-11 116-68.2 116-137.1 0-13.3-10.7-24-24-24Z"/>
  <path fill="#bfdbfe" d="M236 140h48v116c0 13.3-10.7 24-24 24s-24-10.7-24-24V140Z"/>
</svg>
